HIERARCHY
ROOT Hips
{
	OFFSET 0.000000 0.000000 0.000000 
	CHANNELS 6 Xposition Yposition Zposition Zrotation Yrotation Xrotation
	JOINT LeftUpLeg
	{
		OFFSET 1.363060 -1.794630 0.839290 
		CHANNELS 3 Zrotation Yrotation Xrotation
		JOINT LeftLeg
		{
			OFFSET 2.448110 -6.726130 0.000000 
			CHANNELS 3 Zrotation Yrotation Xrotation
			JOINT LeftFoot
			{
				OFFSET 2.562200 -7.039590 0.000000 
				CHANNELS 3 Zrotation Yrotation Xrotation
				JOINT LeftToeBase
				{
					OFFSET 0.157640 -0.433110 2.322550 
					CHANNELS 3 Zrotation Yrotation Xrotation
					End Site
					{
						OFFSET 0.000000 0.000000 0.000000 
					}
				}
			}
		}
	}
	JOINT RightUpLeg
	{
		OFFSET -1.305520 -1.794630 0.839290 
		CHANNELS 3 Zrotation Yrotation Xrotation
		JOINT RightLeg
		{
			OFFSET -2.542530 -6.985550 0.000000 
			CHANNELS 3 Zrotation Yrotation Xrotation
			JOINT RightFoot
			{
				OFFSET -2.568260 -7.056230 0.000000 
				CHANNELS 3 Zrotation Yrotation Xrotation
				JOINT RightToeBase
				{
					OFFSET -0.164730 -0.452590 2.363150 
					CHANNELS 3 Zrotation Yrotation Xrotation
					End Site
					{
						OFFSET 0.000000 0.000000 0.000000 
					}
				}
			}
		}
	}
	JOINT Spine
	{
		OFFSET 0.028270 2.035590 -0.193380 
		CHANNELS 3 Zrotation Yrotation Xrotation
		JOINT Spine1
		{
			OFFSET 0.056720 2.048850 -0.042750 
			CHANNELS 3 Zrotation Yrotation Xrotation
			JOINT Neck1
			{
				OFFSET -0.054170 1.746240 0.172020 
				CHANNELS 3 Zrotation Yrotation Xrotation
				JOINT Head
				{
					OFFSET 0.104070 1.761360 -0.123970 
					CHANNELS 3 Zrotation Yrotation Xrotation
					End Site
					{
						OFFSET 0.000000 0.000000 0.000000 
					}
				}
			}
			JOINT LeftArm
			{
				OFFSET 3.362410 1.200890 -0.311210 
				CHANNELS 3 Zrotation Yrotation Xrotation
				JOINT LeftForeArm
				{
					OFFSET 4.983000 -0.000000 -0.000000 
					CHANNELS 3 Zrotation Yrotation Xrotation
					JOINT LeftHand
					{
						OFFSET 3.483560 -0.000000 -0.000000 
						CHANNELS 3 Zrotation Yrotation Xrotation
						JOINT LeftHandIndex1
						{
							OFFSET 0.715260 -0.000000 -0.000000 
							CHANNELS 3 Zrotation Yrotation Xrotation
							End Site
							{
								OFFSET 0.000000 0.000000 0.000000 
							}
						}
					}
				}
			}
			JOINT RightArm
			{
				OFFSET -3.136600 1.374050 -0.404650 
				CHANNELS 3 Zrotation Yrotation Xrotation
				JOINT RightForeArm
				{
					OFFSET -5.241900 -0.000000 -0.000000 
					CHANNELS 3 Zrotation Yrotation Xrotation
					JOINT RightHand
					{
						OFFSET -3.444170 -0.000000 -0.000000 
						CHANNELS 3 Zrotation Yrotation Xrotation
						JOINT RightHandIndex1
						{
							OFFSET -0.622530 -0.000000 -0.000000 
							CHANNELS 3 Zrotation Yrotation Xrotation
							End Site
							{
								OFFSET 0.000000 0.000000 0.000000 
							}
						}
					}
				}
			}
		}
	}
}
MOTION
Frames: 16
Frame Time: 0.041667
0.797000 18.355034 9.578863 -9.863936 -0.887631 15.001133 -16.847393 -45.362519 17.397374 -3.777637 -2.192636 -3.160216 -15.336384 45.657942 -29.702405 0.414100 4.130800 11.445000 21.710544 24.935203 -3.182667 3.518661 -1.471338 4.298181 7.958868 -25.024216 -1.515502 -0.052400 1.476500 -4.061000 20.404509 7.140694 -24.102148 -11.318554 -0.802784 -8.609744 20.004534 -21.374213 23.894268 3.192000 -8.851200 8.214500 -84.972396 8.119321 -14.047832 7.843632 -8.562064 -1.075128 0.709571 2.168276 47.808309 -7.125000 0.000000 0.000000 80.660795 -9.964646 -15.606442 -10.653225 14.080201 -1.740375 1.291062 1.051606 54.705004 7.125000 0.000000 0.000000 
0.797527 18.355350 9.580760 -9.995878 -0.831423 14.945983 -16.931022 -45.369595 17.538055 -3.788695 -2.220617 -3.164544 -15.295320 45.608943 -29.834618 0.438500 4.249000 11.778200 21.713315 24.852950 -3.197952 3.518374 -1.476636 4.283428 7.932196 -24.974369 -1.466525 -0.220900 3.025300 -8.349100 21.872852 7.280459 -23.892856 -11.558348 -0.965961 -8.680715 19.486561 -21.022249 23.665717 3.169200 -8.752900 8.133300 -85.513826 8.239718 -14.413011 7.906051 -8.635073 -1.090505 0.698820 2.182081 47.643104 -7.125000 0.000000 0.000000 80.336016 -10.038867 -15.115165 -10.563883 14.006871 -1.724043 1.288963 1.047456 54.655684 7.125000 0.000000 0.000000 
0.797738 18.355350 9.582658 -10.130182 -0.759448 14.905119 -16.911387 -45.312841 17.564507 -3.792552 -2.248042 -3.181387 -15.302159 45.585635 -29.746577 0.440700 4.259400 11.807700 21.739142 24.831176 -3.198230 3.518660 -1.479787 4.265425 7.927183 -24.983187 -1.433984 -0.234000 3.113400 -8.594700 23.237219 7.356898 -23.624475 -11.796605 -1.143347 -8.777455 19.703528 -20.671997 23.654831 3.361700 -8.591600 8.175600 -86.038770 8.362567 -14.721755 7.970543 -8.710178 -1.103304 0.682171 2.182392 47.412406 -7.125000 0.000000 0.000000 80.003631 -10.142428 -14.417000 -10.506464 13.967411 -1.715810 1.287805 1.044881 54.467456 7.125000 0.000000 0.000000 
0.798792 18.355139 9.584450 -10.232562 -0.683396 14.888650 -16.927145 -45.290986 17.589101 -3.796621 -2.271420 -3.189708 -15.308314 45.572240 -29.700326 0.427000 4.193700 11.622200 21.716832 24.841935 -3.211153 3.520725 -1.482586 4.245423 7.932806 -25.006763 -1.471954 -0.107700 2.115900 -5.825900 24.555333 7.413961 -23.392610 -11.987804 -1.320805 -8.841665 19.808460 -20.319367 23.324636 3.518800 -8.457200 8.114800 -86.592110 8.454973 -15.123637 8.030868 -8.778469 -1.116389 0.679060 2.184908 47.249192 -7.125000 0.000000 0.000000 79.673780 -10.217659 -13.830210 -10.458944 13.942864 -1.711456 1.289725 1.036839 54.414243 7.125000 0.000000 0.000000 
0.799108 18.354612 9.585715 -10.357569 -0.644879 14.848350 -16.954966 -45.353297 17.678956 -3.800061 -2.288336 -3.201372 -15.373333 45.669772 -29.727617 0.405900 4.090200 11.330600 21.852397 25.689840 -2.606354 3.553790 -1.352817 3.907375 8.204571 -25.712441 -2.086978 -0.026200 1.044500 -2.871300 25.846660 7.435314 -23.029145 -12.138811 -1.493657 -8.969421 19.733157 -19.967769 23.116978 3.612800 -8.322300 8.078700 -87.129636 8.529681 -15.032748 8.143046 -8.895463 -1.125503 0.608542 2.146593 46.713810 -7.125000 0.000000 0.000000 79.286384 -10.161327 -13.431722 -10.289316 13.754766 -1.673050 1.299802 1.009246 54.563450 7.125000 0.000000 0.000000 
0.799003 18.357564 9.608378 -11.163530 -0.233815 14.934132 -16.137657 -45.468027 17.453452 -3.780440 -2.331106 -3.314658 -15.608811 45.885131 -29.266235 0.355900 3.832500 10.605900 22.948767 28.070658 -0.759491 3.653774 -0.903520 2.786112 8.973195 -27.801046 -3.960313 -0.000700 -0.172100 0.472900 29.047082 7.414844 -21.966397 -12.726043 -1.962363 -9.004473 19.553930 -19.344465 22.775989 3.810700 -8.088000 8.090900 -88.353854 8.654529 -14.891628 8.377989 -9.146978 -1.148173 0.461156 2.059482 45.658765 -7.125000 0.000000 0.000000 78.484690 -10.054543 -12.344239 -9.960922 13.384994 -1.602433 1.316957 0.958504 54.600296 7.125000 0.000000 0.000000 
0.796578 18.359988 9.616810 -11.138230 -0.175237 15.082943 -16.073389 -45.593902 17.377001 -3.772161 -2.321685 -3.346061 -15.689113 46.011419 -29.223064 0.347300 3.786600 10.476900 22.946269 28.088514 -0.809016 3.656978 -0.890456 2.753552 8.986096 -27.833035 -4.020980 -0.006100 -0.503800 1.384300 28.610496 7.458203 -22.370005 -12.654951 -1.906452 -8.742270 19.508985 -19.416843 22.849037 3.767100 -8.114200 8.092500 -88.214195 8.748962 -14.160267 8.424531 -9.180769 -1.143846 0.382128 2.016180 45.252461 -7.125000 0.000000 0.000000 78.534872 -10.077285 -12.514121 -9.874764 13.254308 -1.577811 1.320665 0.943089 54.546185 7.125000 0.000000 0.000000 
0.797105 18.360199 9.616494 -11.114206 -0.150274 15.078310 -16.092375 -45.578939 17.334235 -3.771084 -2.318864 -3.327265 -15.683763 45.984936 -29.147176 0.344300 3.770400 10.431700 22.887343 28.097244 -0.826213 3.657342 -0.892864 2.755014 9.000783 -27.865173 -4.039452 -0.006400 -0.517900 1.423100 28.830819 7.405643 -22.210098 -12.636981 -1.953204 -8.834322 19.484537 -19.330606 22.942044 3.777200 -8.066900 8.135100 -88.327067 8.688311 -14.276303 8.440586 -9.196697 -1.145590 0.376108 2.013594 45.238550 -7.125000 0.000000 0.000000 78.402630 -10.028244 -12.300014 -9.854986 13.241951 -1.574592 1.319150 0.947663 54.456708 7.125000 0.000000 0.000000 
0.797422 18.360093 9.616283 -11.146175 -0.122326 15.075737 -16.046446 -45.560542 17.288560 -3.768473 -2.321539 -3.327324 -15.710331 45.999335 -29.040474 0.338900 3.740900 10.348800 22.902312 28.126127 -0.823803 3.657732 -0.896292 2.761315 9.011647 -27.893603 -4.082478 -0.006200 -0.506700 1.392300 29.104919 7.388630 -22.075954 -12.646868 -1.995700 -8.902673 19.507610 -19.250618 22.930625 3.805300 -8.027900 8.149300 -88.475747 8.615361 -14.502694 8.460474 -9.218179 -1.147759 0.378983 2.006287 45.347394 -7.125000 0.000000 0.000000 78.301107 -9.982329 -12.231762 -9.830335 13.218727 -1.570263 1.320994 0.945552 54.499916 7.125000 0.000000 0.000000 
0.797422 18.359672 9.616705 -11.159992 -0.115280 15.099724 -16.003275 -45.564986 17.273608 -3.766053 -2.323058 -3.348081 -15.722451 46.013662 -29.003011 0.343300 3.764900 10.416100 22.916237 27.993513 -0.883866 3.656852 -0.890344 2.743189 8.983176 -27.833640 -3.961913 -0.005900 -0.494400 1.358400 28.915770 7.434122 -22.261934 -12.633822 -1.961067 -8.819014 19.617030 -19.271268 22.867563 3.828000 -8.034000 8.120400 -88.437140 8.574785 -14.750982 8.445557 -9.201891 -1.144878 0.400852 2.004004 45.712720 -7.125000 0.000000 0.000000 78.393778 -9.996133 -12.542984 -9.826358 13.199762 -1.567121 1.322777 0.935596 54.691248 7.125000 0.000000 0.000000 
0.797738 18.359039 9.617654 -11.152467 -0.115442 15.173243 -15.917431 -45.544422 17.195367 -3.763561 -2.315518 -3.360094 -15.691506 45.972875 -29.007079 0.346000 3.779800 10.458000 22.902883 27.736069 -1.032715 3.654836 -0.882165 2.713080 8.927989 -27.714087 -3.725523 -0.004100 -0.414000 1.137500 28.381883 7.518288 -22.731294 -12.592652 -1.880045 -8.643477 19.729397 -19.335785 22.795082 3.838000 -8.061600 8.069500 -88.248029 8.692776 -14.403237 8.445945 -9.200560 -1.145104 0.404632 1.998752 45.645453 -7.125000 0.000000 0.000000 78.580527 -10.082883 -12.881793 -9.840016 13.195852 -1.567494 1.323588 0.931001 54.803865 7.125000 0.000000 0.000000 
0.798476 18.358829 9.618497 -11.143565 -0.126276 15.215130 -15.890289 -45.545335 17.178354 -3.762696 -2.310552 -3.367079 -15.694021 45.988545 -29.040082 0.338400 3.738000 10.340700 22.899074 27.621996 -1.107264 3.653504 -0.884774 2.716163 8.896222 -27.638595 -3.638643 -0.002700 -0.332800 0.914400 28.021479 7.574451 -23.049669 -12.558069 -1.826405 -8.553856 19.710793 -19.374795 22.802301 3.821100 -8.081400 8.049100 -88.107697 8.867425 -13.764710 8.473095 -9.229942 -1.150778 0.393666 1.991856 45.179974 -7.125000 0.000000 0.000000 78.678256 -10.167235 -12.934600 -9.858532 13.212926 -1.572758 1.324756 0.941097 54.723380 7.125000 0.000000 0.000000 
0.799530 18.358829 9.618919 -11.174077 -0.114429 15.176193 -15.936980 -45.596814 17.270474 -3.765120 -2.316911 -3.369850 -15.715370 46.031922 -29.106698 0.338500 3.738900 10.343100 22.908327 27.563298 -1.123479 3.652010 -0.891823 2.735716 8.876313 -27.586211 -3.611140 -0.003300 -0.369200 1.014600 28.259477 7.536545 -22.856668 -12.586547 -1.868857 -8.637330 19.571780 -19.331816 22.906011 3.793300 -8.063300 8.083500 -88.187237 8.870190 -13.759741 8.495190 -9.258531 -1.155536 0.397545 1.989083 45.062515 -7.125000 0.000000 0.000000 78.602647 -10.138777 -12.718029 -9.854553 13.218302 -1.574538 1.325697 0.951592 54.608786 7.125000 0.000000 0.000000 
0.799635 18.358407 9.619551 -11.236194 -0.068643 15.130879 -15.916032 -45.597294 17.282958 -3.765375 -2.322771 -3.358814 -15.721640 46.021514 -29.057754 0.336400 3.727000 10.310000 22.921336 27.462557 -1.168161 3.650345 -0.895759 2.745190 8.848836 -27.519052 -3.546920 -0.004100 -0.414300 1.138300 28.800556 7.461931 -22.460373 -12.643595 -1.958454 -8.770090 19.476397 -19.237567 22.957423 3.795700 -8.022700 8.121900 -88.389666 8.769618 -14.127469 8.508310 -9.276580 -1.157799 0.404743 1.987381 45.218269 -7.125000 0.000000 0.000000 78.453108 -10.042907 -12.437634 -9.833824 13.206540 -1.572150 1.326538 0.953721 54.534560 7.125000 0.000000 0.000000 
0.799530 18.358196 9.620394 -11.287018 -0.038543 15.095155 -15.898547 -45.597368 17.303217 -3.765999 -2.319601 -3.335739 -15.709770 45.994576 -29.050037 0.334300 3.715600 10.277900 22.954717 27.371941 -1.200855 3.647841 -0.904589 2.769233 8.817918 -27.443976 -3.480707 -0.003100 -0.361900 0.994300 29.049949 7.438686 -22.272324 -12.681255 -1.993834 -8.834769 19.448796 -19.189059 22.964147 3.802800 -8.002000 8.133300 -88.474694 8.728194 -14.232334 8.511669 -9.281097 -1.158543 0.403085 1.989160 45.261935 -7.125000 0.000000 0.000000 78.398013 -9.994984 -12.324941 -9.827492 13.203660 -1.571745 1.327489 0.952727 54.474356 7.125000 0.000000 0.000000 
0.800268 18.358196 9.621027 -11.315391 -0.023589 15.066164 -15.919842 -45.629952 17.373786 -3.768108 -2.316529 -3.323991 -15.693678 45.983612 -29.126133 0.345400 3.776400 10.448500 23.003759 27.348826 -1.191969 3.645510 -0.920901 2.812957 8.815609 -27.440893 -3.476545 -0.001800 -0.272000 0.747400 29.044227 7.437609 -22.262446 -12.691920 -1.995484 -8.862294 19.373691 -19.184125 23.058004 3.780400 -7.997800 8.151900 -88.467487 8.758396 -14.130952 8.519217 -9.289914 -1.159874 0.392410 1.989083 45.169327 -7.125000 0.000000 0.000000 78.421830 -9.977851 -12.451866 -9.817610 13.187358 -1.567715 1.327847 0.943901 54.561894 7.125000 0.000000 0.000000 
